<svg width="16" height="16" viewBox="0 0 16 16" fill="none" xmlns="http://www.w3.org/2000/svg">
<g clip-path="url(#clip0_34_24)">
<path d="M14 0H2C0.89543 0 0 0.89543 0 2V14C0 15.1046 0.89543 16 2 16H14C15.1046 16 16 15.1046 16 14V2C16 0.89543 15.1046 0 14 0Z" fill="#2A2A2A" stroke="#444444" stroke-width="0.5"/>
<path d="M15 0H1C0.447715 0 0 0.447715 0 1C0 1.55228 0.447715 2 1 2H15C15.5523 2 16 1.55228 16 1C16 0.447715 15.5523 0 15 0Z" fill="#555555"/>
<path d="M6.30247 7.69141H5.21369C5.1938 7.55054 5.1532 7.42543 5.09189 7.31605C5.03057 7.20502 4.95185 7.11056 4.85574 7.03267C4.75962 6.95478 4.64859 6.89512 4.52264 6.85369C4.39835 6.81226 4.26329 6.79155 4.11745 6.79155C3.85396 6.79155 3.62444 6.85701 3.42889 6.98793C3.23334 7.11719 3.08171 7.30611 2.97399 7.55469C2.86627 7.80161 2.81241 8.10156 2.81241 8.45455C2.81241 8.81747 2.86627 9.1224 2.97399 9.36932C3.08336 9.61624 3.23583 9.80268 3.43137 9.92862C3.62692 10.0546 3.85313 10.1175 4.11 10.1175C4.25417 10.1175 4.38758 10.0985 4.51021 10.0604C4.6345 10.0223 4.7447 9.96674 4.84082 9.89382C4.93694 9.81925 5.01648 9.72893 5.07946 9.62287C5.14409 9.51681 5.18883 9.39583 5.21369 9.25994L6.30247 9.26491C6.2743 9.49858 6.20387 9.72396 6.09118 9.94105C5.98014 10.1565 5.83017 10.3496 5.64125 10.5202C5.45398 10.6893 5.23026 10.8235 4.97008 10.9229C4.71156 11.0207 4.41906 11.0696 4.0926 11.0696C3.63852 11.0696 3.23251 10.9669 2.87456 10.7614C2.51826 10.5559 2.23654 10.2584 2.02939 9.86896C1.82389 9.47952 1.72115 9.00805 1.72115 8.45455C1.72115 7.89938 1.82555 7.42708 2.03436 7.03764C2.24316 6.6482 2.52654 6.35156 2.8845 6.14773C3.24245 5.94223 3.64515 5.83949 4.0926 5.83949C4.38758 5.83949 4.66101 5.88092 4.91291 5.96378C5.16646 6.04664 5.39101 6.16761 5.58656 6.3267C5.78211 6.48414 5.9412 6.6772 6.06383 6.90589C6.18812 7.13459 6.26767 7.39643 6.30247 7.69141Z" fill="#CCCCCC"/>
<path d="M13.2614 9.7017V6.8892H12.7841V9.7017H13.2614ZM14.429 8.53409V8.05682H11.6165V8.53409H14.429ZM9.30629 9.7017V6.8892H8.82901V9.7017H9.30629ZM10.4739 8.53409V8.05682H7.6614V8.53409H10.4739Z" fill="#888888"/>
</g>
<defs>
<clipPath id="clip0_34_24">
<rect width="16" height="16" fill="white"/>
</clipPath>
</defs>
</svg>
