<svg width="16" height="16" viewBox="0 0 16 16" fill="none" xmlns="http://www.w3.org/2000/svg">
<g clip-path="url(#clip0_34_7)">
<path d="M13 0H3C1.89543 0 1 0.89543 1 2V14C1 15.1046 1.89543 16 3 16H13C14.1046 16 15 15.1046 15 14V2C15 0.89543 14.1046 0 13 0Z" fill="#2A2A2A" stroke="#3A3A3A" stroke-width="0.5"/>
<path d="M10 0L15 5H10V0Z" fill="#111111"/>
<path d="M10 0V5H15" stroke="#3A3A3A" stroke-width="0.5"/>
<path d="M4.90274 13.0533C4.62339 13.0533 4.38309 12.9941 4.18186 12.8757C3.98182 12.7562 3.82793 12.5904 3.72021 12.3786C3.61368 12.1667 3.56041 11.9228 3.56041 11.647C3.56041 11.3677 3.61427 11.1226 3.72199 10.9119C3.83089 10.7 3.98537 10.5349 4.18541 10.4165C4.38546 10.297 4.62339 10.2372 4.89919 10.2372C5.13712 10.2372 5.34545 10.2804 5.52419 10.3668C5.70293 10.4532 5.84439 10.5746 5.94855 10.7308C6.05272 10.8871 6.11013 11.0705 6.12078 11.2812H5.407C5.38688 11.1451 5.33361 11.0356 5.2472 10.9528C5.16198 10.8687 5.05012 10.8267 4.91162 10.8267C4.79443 10.8267 4.69204 10.8587 4.60445 10.9226C4.51804 10.9853 4.45057 11.0771 4.40203 11.1978C4.3535 11.3185 4.32923 11.4647 4.32923 11.6364C4.32923 11.8104 4.35291 11.9583 4.40026 12.0803C4.44879 12.2022 4.51685 12.2951 4.60445 12.359C4.69204 12.4229 4.79443 12.4549 4.91162 12.4549C4.99803 12.4549 5.07557 12.4371 5.14422 12.4016C5.21406 12.3661 5.27147 12.3146 5.31645 12.2472C5.36262 12.1785 5.3928 12.0962 5.407 12.0004H6.12078C6.10895 12.2087 6.05213 12.3922 5.95033 12.5508C5.84971 12.7082 5.71063 12.8313 5.53307 12.9201C5.35551 13.0089 5.1454 13.0533 4.90274 13.0533ZM6.60507 14.0227V10.2727H7.35081V10.7308H7.38454C7.41769 10.6574 7.46563 10.5829 7.52836 10.5071C7.59229 10.4302 7.67515 10.3662 7.77694 10.3153C7.87993 10.2633 8.00777 10.2372 8.16047 10.2372C8.35933 10.2372 8.54281 10.2893 8.71089 10.3935C8.87898 10.4964 9.01333 10.6521 9.11395 10.8604C9.21456 11.0676 9.26487 11.3274 9.26487 11.6399C9.26487 11.9441 9.21575 12.201 9.1175 12.4105C9.02043 12.6188 8.88786 12.7769 8.71977 12.8846C8.55287 12.9911 8.36584 13.0444 8.15869 13.0444C8.01191 13.0444 7.88703 13.0201 7.78405 12.9716C7.68225 12.9231 7.5988 12.8621 7.53369 12.7887C7.46859 12.7141 7.41887 12.639 7.38454 12.5632H7.36146V14.0227H6.60507ZM7.34548 11.6364C7.34548 11.7985 7.36797 11.94 7.41295 12.0607C7.45793 12.1815 7.52304 12.2756 7.60827 12.343C7.69349 12.4093 7.79707 12.4425 7.91899 12.4425C8.0421 12.4425 8.14626 12.4087 8.23149 12.3413C8.31672 12.2726 8.38123 12.1779 8.42503 12.0572C8.47001 11.9353 8.4925 11.795 8.4925 11.6364C8.4925 11.4789 8.4706 11.3404 8.4268 11.2209C8.383 11.1013 8.31849 11.0078 8.23327 10.9403C8.14804 10.8729 8.04328 10.8391 7.91899 10.8391C7.79588 10.8391 7.69172 10.8717 7.60649 10.9368C7.52245 11.0019 7.45793 11.0942 7.41295 11.2138C7.36797 11.3333 7.34548 11.4742 7.34548 11.6364ZM9.76913 14.0227V10.2727H10.5149V10.7308H10.5486C10.5818 10.6574 10.6297 10.5829 10.6924 10.5071C10.7563 10.4302 10.8392 10.3662 10.941 10.3153C11.044 10.2633 11.1718 10.2372 11.3245 10.2372C11.5234 10.2372 11.7069 10.2893 11.875 10.3935C12.043 10.4964 12.1774 10.6521 12.278 10.8604C12.3786 11.0676 12.4289 11.3274 12.4289 11.6399C12.4289 11.9441 12.3798 12.201 12.2816 12.4105C12.1845 12.6188 12.0519 12.7769 11.8838 12.8846C11.7169 12.9911 11.5299 13.0444 11.3228 13.0444C11.176 13.0444 11.0511 13.0201 10.9481 12.9716C10.8463 12.9231 10.7629 12.8621 10.6978 12.7887C10.6326 12.7141 10.5829 12.639 10.5486 12.5632H10.5255V14.0227H9.76913ZM10.5095 11.6364C10.5095 11.7985 10.532 11.94 10.577 12.0607C10.622 12.1815 10.6871 12.2756 10.7723 12.343C10.8576 12.4093 10.9611 12.4425 11.0831 12.4425C11.2062 12.4425 11.3103 12.4087 11.3956 12.3413C11.4808 12.2726 11.5453 12.1779 11.5891 12.0572C11.6341 11.9353 11.6566 11.795 11.6566 11.6364C11.6566 11.4789 11.6347 11.3404 11.5909 11.2209C11.5471 11.1013 11.4826 11.0078 11.3973 10.9403C11.3121 10.8729 11.2073 10.8391 11.0831 10.8391C10.9599 10.8391 10.8558 10.8717 10.7706 10.9368C10.6865 11.0019 10.622 11.0942 10.577 11.2138C10.532 11.3333 10.5095 11.4742 10.5095 11.6364Z" fill="#AAAAAA"/>
</g>
<defs>
<clipPath id="clip0_34_7">
<rect width="16" height="16" fill="white"/>
</clipPath>
</defs>
</svg>
