<svg width="16" height="16" viewBox="0 0 16 16" fill="none" xmlns="http://www.w3.org/2000/svg">
<g clip-path="url(#clip0_34_13)">
<path d="M13 0H3C1.89543 0 1 0.89543 1 2V14C1 15.1046 1.89543 16 3 16H13C14.1046 16 15 15.1046 15 14V2C15 0.89543 14.1046 0 13 0Z" fill="#222222" stroke="#333333" stroke-width="0.5"/>
<path d="M10 0L15 5H10V0Z" fill="#111111"/>
<path d="M10 0V5H15" stroke="#333333" stroke-width="0.5"/>
<path d="M4.50284 14.0739C4.31534 14.0739 4.15436 14.0076 4.01989 13.875C3.88731 13.7405 3.82102 13.5795 3.82102 13.392C3.82102 13.2064 3.88731 13.0473 4.01989 12.9148C4.15436 12.7822 4.31534 12.7159 4.50284 12.7159C4.68466 12.7159 4.84375 12.7822 4.98011 12.9148C5.11648 13.0473 5.18466 13.2064 5.18466 13.392C5.18466 13.517 5.15246 13.6316 5.08807 13.7358C5.02557 13.8381 4.94318 13.9205 4.84091 13.983C4.73864 14.0436 4.62595 14.0739 4.50284 14.0739ZM7.38849 11.4773V14H6.17827V8.18182H7.3544V10.4062H7.40554C7.50402 10.1487 7.66312 9.94697 7.88281 9.80114C8.10251 9.65341 8.37808 9.57955 8.70952 9.57955C9.01255 9.57955 9.27675 9.64583 9.50213 9.77841C9.7294 9.90909 9.90554 10.0975 10.0305 10.3438C10.1574 10.5881 10.2199 10.8807 10.218 11.2216V14H9.00781V11.4375C9.00971 11.1686 8.94152 10.9593 8.80327 10.8097C8.6669 10.66 8.47562 10.5852 8.2294 10.5852C8.06463 10.5852 7.9188 10.6203 7.7919 10.6903C7.6669 10.7604 7.56842 10.8627 7.49645 10.9972C7.42637 11.1297 7.39039 11.2898 7.38849 11.4773Z" fill="#AAAAAA"/>
</g>
<defs>
<clipPath id="clip0_34_13">
<rect width="16" height="16" fill="white"/>
</clipPath>
</defs>
</svg>
