<svg width="16" height="16" viewBox="0 0 16 16" fill="none" xmlns="http://www.w3.org/2000/svg">
<g clip-path="url(#clip0_34_2)">
<path d="M14 5H2C0.89543 5 0 5.89543 0 7V13C0 14.1046 0.89543 15 2 15H14C15.1046 15 16 14.1046 16 13V7C16 5.89543 15.1046 5 14 5Z" fill="#2A2A2A" stroke="#444444" stroke-width="0.5"/>
<path d="M6 3H1C0.447715 3 0 3.44772 0 4V7C0 7.55228 0.447715 8 1 8H6C6.55228 8 7 7.55228 7 7V4C7 3.44772 6.55228 3 6 3Z" fill="#333333" stroke="#444444" stroke-width="0.5"/>
<path d="M14 6H2C0.89543 6 0 6.89543 0 8V13C0 14.1046 0.89543 15 2 15H14C15.1046 15 16 14.1046 16 13V8C16 6.89543 15.1046 6 14 6Z" fill="#333333"/>
<path d="M11.5 9H2.5C2.22386 9 2 9.22386 2 9.5C2 9.77614 2.22386 10 2.5 10H11.5C11.7761 10 12 9.77614 12 9.5C12 9.22386 11.7761 9 11.5 9Z" fill="#2A2A2A"/>
</g>
<defs>
<clipPath id="clip0_34_2">
<rect width="16" height="16" fill="white"/>
</clipPath>
</defs>
</svg>
