<svg width="16" height="16" viewBox="0 0 16 16" fill="none" xmlns="http://www.w3.org/2000/svg">
<g clip-path="url(#clip0_34_19)">
<rect width="16" height="16" fill="#444444"/>
<path d="M14 0H2C0.89543 0 0 0.89543 0 2V14C0 15.1046 0.89543 16 2 16H14C15.1046 16 16 15.1046 16 14V2C16 0.89543 15.1046 0 14 0Z" fill="#2A2A2A" stroke="#444444" stroke-width="0.5"/>
<rect y="4" width="16" height="1" fill="#444444"/>
<path d="M4.47865 9.40945C4.46444 9.26622 4.40348 9.15495 4.29577 9.07564C4.18805 8.99633 4.04186 8.95668 3.8572 8.95668C3.73173 8.95668 3.62578 8.97443 3.53937 9.00994C3.45296 9.04427 3.38667 9.09221 3.34051 9.15376C3.29553 9.21532 3.27304 9.28516 3.27304 9.36328C3.27067 9.42839 3.28428 9.4852 3.31388 9.53374C3.34465 9.58227 3.38667 9.62429 3.43994 9.6598C3.49321 9.69413 3.55476 9.72431 3.6246 9.75036C3.69444 9.77521 3.76901 9.79652 3.84832 9.81428L4.17503 9.8924C4.33364 9.92791 4.47924 9.97526 4.61182 10.0344C4.74439 10.0936 4.85921 10.1664 4.95628 10.2528C5.05334 10.3393 5.12851 10.4411 5.18177 10.5582C5.23622 10.6754 5.26404 10.8098 5.26523 10.9613C5.26404 11.1838 5.20722 11.3768 5.09477 11.5401C4.9835 11.7023 4.82252 11.8284 4.61182 11.9183C4.4023 12.0071 4.14958 12.0515 3.85365 12.0515C3.56009 12.0515 3.30441 12.0065 3.0866 11.9165C2.86998 11.8266 2.70071 11.6934 2.57879 11.517C2.45805 11.3395 2.39472 11.1199 2.38881 10.8583H3.13277C3.14105 10.9802 3.17597 11.082 3.23753 11.1637C3.30026 11.2442 3.38372 11.3052 3.48788 11.3466C3.59323 11.3868 3.7122 11.407 3.84477 11.407C3.97498 11.407 4.08802 11.388 4.1839 11.3501C4.28097 11.3123 4.35613 11.2596 4.4094 11.1921C4.46267 11.1246 4.4893 11.0471 4.4893 10.9595C4.4893 10.8778 4.46504 10.8092 4.4165 10.7536C4.36916 10.6979 4.29932 10.6506 4.20699 10.6115C4.11584 10.5724 4.00398 10.5369 3.8714 10.505L3.47545 10.4055C3.16887 10.331 2.9268 10.2144 2.74925 10.0558C2.57169 9.89714 2.4835 9.68348 2.48469 9.41477C2.4835 9.1946 2.5421 9.00225 2.66047 8.83771C2.78002 8.67318 2.94397 8.54474 3.1523 8.45241C3.36063 8.36009 3.59738 8.31392 3.86253 8.31392C4.13241 8.31392 4.36797 8.36009 4.5692 8.45241C4.77162 8.54474 4.92905 8.67318 5.0415 8.83771C5.15396 9.00225 5.21196 9.19283 5.21551 9.40945H4.47865ZM6.52455 8.36364V12H5.76816V8.36364H6.52455ZM7.88685 10.4233V12H7.13046V9.27273H7.85134V9.75391H7.8833C7.94367 9.59529 8.04488 9.46982 8.18692 9.37749C8.32897 9.28397 8.5012 9.23722 8.70361 9.23722C8.89301 9.23722 9.05814 9.27865 9.199 9.36151C9.33986 9.44437 9.44935 9.56274 9.52748 9.71662C9.6056 9.86932 9.64466 10.0516 9.64466 10.2635V12H8.88827V10.3984C8.88946 10.2315 8.84684 10.1013 8.76043 10.0078C8.67402 9.91312 8.55506 9.86577 8.40354 9.86577C8.30174 9.86577 8.21178 9.88767 8.13366 9.93146C8.05671 9.97526 7.99635 10.0392 7.95255 10.1232C7.90993 10.2061 7.88804 10.3061 7.88685 10.4233ZM10.8729 9.27273L11.3736 10.2262L11.8868 9.27273H12.6627L11.8726 10.6364L12.684 12H11.9116L11.3736 11.0572L10.8445 12H10.0633L10.8729 10.6364L10.0917 9.27273H10.8729Z" fill="#CCCCCC"/>
</g>
<defs>
<clipPath id="clip0_34_19">
<rect width="16" height="16" fill="white"/>
</clipPath>
</defs>
</svg>
